<?xml version="1.0" encoding="UTF-8" standalone="no"?>
<!-- Created with Inkscape (http://www.inkscape.org/) -->

<svg
   xmlns:dc="http://purl.org/dc/elements/1.1/"
   xmlns:cc="http://creativecommons.org/ns#"
   xmlns:rdf="http://www.w3.org/1999/02/22-rdf-syntax-ns#"
   xmlns:svg="http://www.w3.org/2000/svg"
   xmlns="http://www.w3.org/2000/svg"
   xmlns:sodipodi="http://sodipodi.sourceforge.net/DTD/sodipodi-0.dtd"
   xmlns:inkscape="http://www.inkscape.org/namespaces/inkscape"
   id="svg2"
   viewBox="0 0 300.88 100.54"
   version="1.0"
   inkscape:version="0.48.4 r9939"
   width="400"
   height="400"
   sodipodi:docname="StefanvonHalenbach-golden-key.svg">
  <defs
     id="defs30" />
  <sodipodi:namedview
     pagecolor="#ffffff"
     bordercolor="#666666"
     borderopacity="1"
     objecttolerance="10"
     gridtolerance="10"
     guidetolerance="10"
     inkscape:pageopacity="0"
     inkscape:pageshadow="2"
     inkscape:window-width="1301"
     inkscape:window-height="744"
     id="namedview28"
     showgrid="false"
     inkscape:zoom="0.97048657"
     inkscape:cx="150.44"
     inkscape:cy="126.84169"
     inkscape:window-x="65"
     inkscape:window-y="24"
     inkscape:window-maximized="1"
     inkscape:current-layer="svg2" />
  <metadata
     id="metadata26">
    <rdf:RDF>
      <cc:Work>
        <dc:format>image/svg+xml</dc:format>
        <dc:type
           rdf:resource="http://purl.org/dc/dcmitype/StillImage" />
        <cc:license
           rdf:resource="http://creativecommons.org/licenses/publicdomain/" />
        <dc:publisher>
          <cc:Agent
             rdf:about="http://openclipart.org/">
            <dc:title>Openclipart</dc:title>
          </cc:Agent>
        </dc:publisher>
        <dc:title>golden key</dc:title>
        <dc:date>2008-06-02T17:44:59</dc:date>
        <dc:description />
        <dc:source>https://openclipart.org/detail/17259/golden-key-by-stefanvonhalenbach-17259</dc:source>
        <dc:creator>
          <cc:Agent>
            <dc:title>StefanvonHalenbach</dc:title>
          </cc:Agent>
        </dc:creator>
        <dc:subject>
          <rdf:Bag>
            <rdf:li>colour</rdf:li>
            <rdf:li>key</rdf:li>
            <rdf:li>old</rdf:li>
            <rdf:li>sign</rdf:li>
          </rdf:Bag>
        </dc:subject>
      </cc:Work>
      <cc:License
         rdf:about="http://creativecommons.org/licenses/publicdomain/">
        <cc:permits
           rdf:resource="http://creativecommons.org/ns#Reproduction" />
        <cc:permits
           rdf:resource="http://creativecommons.org/ns#Distribution" />
        <cc:permits
           rdf:resource="http://creativecommons.org/ns#DerivativeWorks" />
      </cc:License>
    </rdf:RDF>
  </metadata>
  <g
     id="layer1"
     transform="matrix(0.75784358,-0.65243628,0.65243628,0.75784358,-326.46474,-62.791909)">
    <g
       id="g2343"
       transform="matrix(-0.57487,0.81824,-0.81824,-0.57487,774.51,393.01)">
      <g
         id="g2321"
         style="fill:#000000"
         transform="matrix(1.0372,0,0,1.0312,-9.6471,-14.305)">
        <path
           id="path2323"
           style="fill:#000000"
           d="m 255.36,367.73 c -2.27,-0.25 -2.03,2.85 -4.14,2.76 -2.81,1.18 -4.02,5.05 -1.27,7.07 1.78,1.71 3.31,3.54 3.88,5.86 2.75,2.04 3.79,5.86 6.41,8.1 2.22,4.13 5.59,7.16 7.8,11.25 2.69,2.99 4.66,7.09 7.45,9.64 0.99,2.89 3.4,5.04 4.91,7.64 2.68,3.54 5.46,7.16 7.78,10.9 1.73,2.87 4.51,5.04 5.75,8.16 2.18,1.95 3.49,4.35 4.87,6.76 2.32,2.86 4.27,5.94 6.44,8.9 0.99,3.18 4.66,4.99 5.59,8.28 1.82,2.28 4.09,4.42 5.04,7.11 1.88,1.27 2.61,4.13 4.51,5.38 0.38,2.32 2.78,3.76 3.77,5.93 1.27,0.54 1.28,1.53 1.82,2.62 1.68,1.58 2.79,4.21 4.55,5.46 1.12,3.72 4.79,6.01 6.3,9.52 1.82,2.14 3.59,4.24 4.69,6.77 1.77,1.14 1.54,3.67 3.75,4.24 0.63,1.56 1.57,3.16 2.83,4.45 0.03,1.81 2.19,2.07 2.37,3.8 1.57,1.93 4.98,1.96 6.15,-0.26 1.68,-0.7 2.85,-2.24 3.53,-3.62 2.05,-0.47 -1.16,-1.29 -0.61,-2.65 -4.57,-6.84 -9.48,-13.6 -14.27,-20.25 -0.25,-2.24 -2.85,-3.27 -3.67,-5.47 -2.65,-3.42 -4.96,-7.61 -7.79,-10.58 -0.96,-3.52 -4.64,-5.51 -5.87,-8.9 -2.34,-2.51 -3.97,-5.9 -6.15,-8.28 0.04,-1.71 -2.19,-1.8 -2.25,-3.46 -2.54,-3.46 -4.97,-7.01 -7.49,-10.47 -0.55,-1.82 -2.51,-2.38 -2.61,-4.27 -1.88,-1.57 -2.96,-4.17 -4.7,-5.65 0.15,-1.87 -2.37,-1.98 -2.22,-3.86 -2.15,-2.54 -3.93,-5.41 -5.65,-8.16 -2.38,-2.2 -3.75,-5.71 -6.07,-7.73 -0.97,-3.39 -4.46,-5.57 -5.53,-8.99 -2.72,-2.12 -3.94,-6 -6.48,-8.02 -1.23,-3.4 -4.04,-6.08 -5.97,-9.15 -1.42,-0.63 -0.87,-2.43 -2.26,-3.24 -3.64,-4.64 -6.54,-10.07 -10.49,-14.43 -0.47,-1.25 -1.46,-3.02 -3.3,-3.09 -0.46,-0.07 -0.93,-0.13 -1.4,-0.07 z"
           inkscape:connector-curvature="0" />
        <path
           id="path2325"
           style="fill:#000000"
           d="m 362.77,429.86 c -1.03,1.03 -1.35,2.89 -3.24,2.99 -1.27,0.71 -1.78,2.1 -3.38,2.23 -1.59,1.19 -3.03,2.53 -4.66,3.44 -0.78,1.4 -3.33,1.3 -3.88,3.06 -2.38,0.87 -3.93,3.26 -6.38,4.03 -1.54,1.66 -3.56,2.7 -5.4,3.58 -0.22,4.47 6.77,6.59 5.4,11.21 -1.08,0.34 -1.85,0.83 -2.57,1.78 -1.51,1.73 -3.7,1.93 -4.58,-0.44 -1.11,-2.49 -3.02,-4.86 -5.03,-6.64 -1.9,0.3 -6.16,2.15 -4.17,4.63 2.02,2.2 3.55,5.12 5.66,7.03 1.01,3.7 4.99,5.92 6.18,9.51 1.99,0.55 2.33,2.5 3.38,3.99 1.46,1.33 1.91,3.81 3.78,5 0.82,2.13 2.76,3.26 3.79,5.42 0.9,1.31 2.08,1.73 2.3,3.36 1.72,2.86 4.58,5.05 5.73,8.16 1.06,0.44 1.91,1.3 2.72,1.76 2.82,-0.38 4.27,-3.99 1.82,-5.85 -1.24,-1.8 -2.2,-3.83 -3.69,-5.54 1.72,-1.56 3.9,-3.22 6.16,-3.59 2.5,2.06 3.26,6.56 6.58,7.49 2,-0.08 2.06,-2.61 4.02,-2.47 3.02,-2.12 6.04,-4.58 8.99,-6.68 1.91,-0.33 2.85,-2.52 4.9,-3.07 2.8,-1.95 5.73,-3.81 8.12,-6.18 0.29,-1.65 -1.82,-2.7 -2.35,-4.23 -1.71,-3.46 -5.74,-0.53 -7.15,1.6 -0.92,0.54 -2.09,0.56 -2.47,1.72 -3.17,2.39 -6.43,-1.76 -6.49,-4.71 1.32,-0.87 3.03,-1.27 3.82,-2.74 2.34,-0.49 3.53,-3.09 5.81,-3.7 1.12,-1.38 -0.15,-2.61 -1.05,-3.48 -0.43,-2.12 -2.94,-5.29 -4.98,-2.71 -1.66,1.61 -3.49,2.27 -5.02,3.84 -2.58,1.22 -4.61,3.15 -6.68,4.92 -1.71,0.33 -4.57,2.48 -2.23,4.01 0.91,2.25 3.08,3.8 3.85,6.05 -0.6,2.17 -3.12,2.79 -4.66,4.09 -4.31,0.33 -4.86,-6.29 -8.72,-6.92 -1.2,1.87 -3.54,3.73 -5.93,3.76 -2.46,-1.46 -5.13,-4.38 -5.16,-7.31 2.23,-0.45 3.78,-2.5 5.95,-3.07 1.47,-1.9 -0.93,-3.53 -1.46,-5.18 -1.98,-0.75 -3.64,-4.3 -0.73,-5.27 1.38,-0.5 2.58,-1.04 3.4,-2.29 2.34,-0.02 4,2.99 5.04,4.82 0.72,2.48 4.28,2.08 5.1,0.14 1.59,0.07 1.77,-1.99 3.51,-1.9 1.32,-0.6 1.65,-2.13 3.21,-2.25 1.6,-1.4 3.01,-2.87 5.02,-3.58 1.05,-1 4.43,-2.3 2.17,-3.93 -1.47,-1.52 -1.97,-5.02 -4.47,-5.06 -1.1,1.29 -2.62,1.95 -4.05,2.64 -0.7,1.51 -3.38,1.21 -3.79,3.19 -2.78,2.8 -5.48,-1.19 -6.29,-3.64 -2.07,-0.27 0.23,-3.35 1.41,-3.72 1.39,-0.59 1.41,-2.33 3.1,-2.15 1.64,-0.86 2.8,-2.4 4.62,-2.81 0.52,-3 -2.43,-5.74 -4.03,-8.06 -0.22,-0.2 -0.55,-0.34 -0.85,-0.28 z"
           inkscape:connector-curvature="0" />
        <path
           id="path2327"
           style="fill:#000000"
           d="m 253.89,360.79 c -1.3,0.22 -1.44,1.87 -3.02,1.92 -1.78,1.46 -3.78,2.53 -5.63,3.77 -0.73,1.2 -3.02,1.44 -2.65,3.52 0.09,3.66 4.86,1.85 6.64,0.55 2.71,-2.54 7.11,-3.75 8.62,-7.41 -0.61,-1.56 -2.3,-2.52 -3.96,-2.35 z"
           inkscape:connector-curvature="0" />
        <path
           id="path2329"
           style="fill:#000000"
           d="m 245.77,352.29 c -2.3,2.05 -6.26,3.1 -8,6.07 0.27,3.65 4.14,8.52 8.22,6.32 2.31,-1.79 6.63,-4.01 4.76,-7.57 -1.24,-1.75 -2.78,-4.29 -4.98,-4.82 z"
           inkscape:connector-curvature="0" />
        <path
           id="path2331"
           style="fill:#000000"
           d="m 244.25,344.96 c -1.22,0.58 -1.53,2.25 -3.18,2.17 -1.68,1.76 -4.38,2.85 -5.74,4.74 -2.2,0 -5.42,3.31 -2.53,4.79 4.45,1.32 8.25,-3.24 11.59,-5.32 2.17,-0.59 4.91,-3.54 1.99,-5.2 -0.61,-0.49 -1.31,-1.17 -2.13,-1.18 z"
           inkscape:connector-curvature="0" />
        <path
           id="path2333"
           style="fill:#000000"
           d="m 234.58,331.85 c 0.05,1.49 -2.08,0.93 -2.29,2.3 -2.25,0.39 -3.82,2.49 -5.97,3.06 -0.45,1.42 -3.07,1.39 -2.71,3.38 -0.48,0.9 -1.69,1.53 -0.79,2.75 1.61,4.11 6.02,9.25 10.85,7.55 1.03,-1.82 3.91,-1.94 5.12,-3.88 3.4,-1.53 5.52,-6.13 2.53,-9.05 -1.98,-1.81 -3.26,-4.53 -5.77,-5.49 -0.12,-0.36 -0.48,-1.2 -0.97,-0.62 z"
           inkscape:connector-curvature="0" />
        <path
           id="path2335"
           style="fill:#000000"
           d="m 230.85,326.04 c -1.44,1.19 -2.9,1.95 -4.53,2.83 -1.51,1.85 -4.29,2.25 -5.53,4.03 -3.55,0.56 -2.23,7.19 1.56,4.72 2.86,-1.03 4.74,-3.7 7.55,-4.64 1.4,-1.64 5.43,-2.92 3.08,-5.55 -0.4,-0.77 -1.19,-1.56 -2.13,-1.39 z"
           inkscape:connector-curvature="0" />
        <path
           id="path2337"
           style="fill:#000000"
           d="m 219.44,317.21 c -4.09,0.16 -4.8,5.72 -3.47,8.68 1.31,0.43 0.85,2.88 2.76,2.88 2.61,0.56 6.95,0.96 7.16,-2.65 1.72,-0.8 1.07,-3.63 -0.26,-4.39 0.11,-3.05 -3.52,-4.71 -6.19,-4.52 z"
           inkscape:connector-curvature="0" />
        <path
           id="path2339"
           style="fill:#000000"
           d="m 219.25,276.3 c -2.79,0.19 -6.06,-0.24 -8.26,1.54 -2.98,0.22 -5.57,1.96 -8.46,2.29 -0.9,1.62 -3.66,1.17 -4.51,2.81 -1.59,-0.07 -1.77,1.99 -3.52,1.9 -1.32,0.7 -1.75,2.1 -3.34,2.37 -4.1,3.29 -8.18,7.19 -10.89,11.56 -1.23,0.4 -0.58,2.05 -1.8,2.47 -0.5,1.85 -1.11,3.57 -2.11,5.12 -0.9,2.89 -0.21,6.31 -2,8.69 -0.31,1.82 1.62,2.74 1.23,4.65 0.18,4.13 1.19,8.37 3.08,11.92 1.46,0.39 1.36,2.83 2.84,3.64 4.37,5.19 10.98,8.89 17.95,7.64 4.06,-0.33 8.57,0.37 12,-2.01 4.13,-1.36 6.5,-7.16 4.72,-10.99 -1.16,-0.34 -0.61,-2.35 -2.11,-2.59 -0.86,-1.42 -1.87,-3.05 -3.95,-2.59 -2.3,-0.31 -5.86,-0.04 -5.44,3.18 -0.41,2.01 1.6,3.58 2.18,4.96 -3.41,1.99 -8.02,2.04 -11.84,1.42 -3.75,-0.86 -6.84,-3.87 -8.6,-6.97 -1.2,-0.28 -0.32,-2.45 -1.74,-2.89 -0.64,-4.51 -0.9,-9.64 0.12,-14.07 1.51,-1.45 2.3,-3.7 4.31,-4.94 2.82,-1.52 5.36,-3.85 8.71,-4.15 2.19,-1.62 5.06,-0.63 7.39,-1.9 1.5,-1.35 0.91,-4.01 2.67,-5.02 1.47,-3.3 5.2,-5.51 8.18,-7.41 2.1,-1.5 4.99,-0.81 6.98,-2.11 1.86,-0.76 5.01,-1.05 6.56,0.55 1.71,0.39 3.36,0.78 4.41,2.05 2.4,0.7 3.8,3.72 5.44,5.44 0.08,1.55 2.03,2.17 1.66,3.99 -0.21,2.84 2.79,5.78 1,8.36 -1.14,2.72 -1.45,6.06 -4.07,8.01 -1.29,1.22 -3.64,3.17 -5.35,2.27 -0.24,-2.03 0.03,-5.77 -3.15,-5.32 -3.18,-0.52 -6.26,3.46 -4.07,6.09 0.71,7.2 9.96,9.48 15.44,6.01 1.61,-0.46 3.23,-0.96 3.71,-2.77 1.49,-0.93 2.78,-2.1 3.17,-3.93 2.34,-2.04 1.08,-6.07 2.86,-8.52 0.34,-2.48 0.7,-5.64 -0.89,-7.57 -0.07,-3.68 -1.93,-7.24 -3.91,-10.06 -2.84,-3.73 -6.39,-7.48 -10.55,-9.76 -2.15,0.15 -2.92,-1.95 -4.89,-1.88 -2.76,-2.39 -7.38,-1.03 -10.83,-1.49 l -0.33,0.01 z"
           inkscape:connector-curvature="0" />
      </g>
      <path
         id="path2341"
         style="fill:#808000;fill-rule:evenodd"
         d="m 204.28,321.78 c 0,0 1.25,-14.04 9.94,-13.93 l 11.43,0.15 5.82,7.88 -0.94,4.91 0.49,4.58 6.28,11.51 7.77,12.47 9.07,13.78 4.53,8.53 -9.07,5.25 -10.36,-15.09 -17.15,-21.05 -8.46,-13 -4.82,-2.71 -4.53,-3.28 z"
         inkscape:connector-curvature="0" />
      <g
         id="g2310"
         style="fill:#ffff00"
         transform="matrix(1.0544,0,0,1.0597,-15.17,-24.097)">
        <path
           id="path2292"
           style="fill:#ffff00"
           d="m 255.36,367.73 c -2.27,-0.25 -2.03,2.85 -4.14,2.76 -2.81,1.18 -4.02,5.05 -1.27,7.07 1.78,1.71 3.31,3.54 3.88,5.86 2.75,2.04 3.79,5.86 6.41,8.1 2.22,4.13 5.59,7.16 7.8,11.25 2.69,2.99 4.66,7.09 7.45,9.64 0.99,2.89 3.4,5.04 4.91,7.64 2.68,3.54 5.46,7.16 7.78,10.9 1.73,2.87 4.51,5.04 5.75,8.16 2.18,1.95 3.49,4.35 4.87,6.76 2.32,2.86 4.27,5.94 6.44,8.9 0.99,3.18 4.66,4.99 5.59,8.28 1.82,2.28 4.09,4.42 5.04,7.11 1.88,1.27 2.61,4.13 4.51,5.38 0.38,2.32 2.78,3.76 3.77,5.93 1.27,0.54 1.28,1.53 1.82,2.62 1.68,1.58 2.79,4.21 4.55,5.46 1.12,3.72 4.79,6.01 6.3,9.52 1.82,2.14 3.59,4.24 4.69,6.77 1.77,1.14 1.54,3.67 3.75,4.24 0.63,1.56 1.57,3.16 2.83,4.45 0.03,1.81 2.19,2.07 2.37,3.8 1.57,1.93 4.98,1.96 6.15,-0.26 1.68,-0.7 2.85,-2.24 3.53,-3.62 2.05,-0.47 -1.16,-1.29 -0.61,-2.65 -4.57,-6.84 -9.48,-13.6 -14.27,-20.25 -0.25,-2.24 -2.85,-3.27 -3.67,-5.47 -2.65,-3.42 -4.96,-7.61 -7.79,-10.58 -0.96,-3.52 -4.64,-5.51 -5.87,-8.9 -2.34,-2.51 -3.97,-5.9 -6.15,-8.28 0.04,-1.71 -2.19,-1.8 -2.25,-3.46 -2.54,-3.46 -4.97,-7.01 -7.49,-10.47 -0.55,-1.82 -2.51,-2.38 -2.61,-4.27 -1.88,-1.57 -2.96,-4.17 -4.7,-5.65 0.15,-1.87 -2.37,-1.98 -2.22,-3.86 -2.15,-2.54 -3.93,-5.41 -5.65,-8.16 -2.38,-2.2 -3.75,-5.71 -6.07,-7.73 -0.97,-3.39 -4.46,-5.57 -5.53,-8.99 -2.72,-2.12 -3.94,-6 -6.48,-8.02 -1.23,-3.4 -4.04,-6.08 -5.97,-9.15 -1.42,-0.63 -0.87,-2.43 -2.26,-3.24 -3.64,-4.64 -6.54,-10.07 -10.49,-14.43 -0.47,-1.25 -1.46,-3.02 -3.3,-3.09 -0.46,-0.07 -0.93,-0.13 -1.4,-0.07 z"
           inkscape:connector-curvature="0" />
        <path
           id="path2294"
           style="fill:#ffff00"
           d="m 362.77,429.86 c -1.03,1.03 -1.35,2.89 -3.24,2.99 -1.27,0.71 -1.78,2.1 -3.38,2.23 -1.59,1.19 -3.03,2.53 -4.66,3.44 -0.78,1.4 -3.33,1.3 -3.88,3.06 -2.38,0.87 -3.93,3.26 -6.38,4.03 -1.54,1.66 -3.56,2.7 -5.4,3.58 -0.22,4.47 6.77,6.59 5.4,11.21 -1.08,0.34 -1.85,0.83 -2.57,1.78 -1.51,1.73 -3.7,1.93 -4.58,-0.44 -1.11,-2.49 -3.02,-4.86 -5.03,-6.64 -1.9,0.3 -6.16,2.15 -4.17,4.63 2.02,2.2 3.55,5.12 5.66,7.03 1.01,3.7 4.99,5.92 6.18,9.51 1.99,0.55 2.33,2.5 3.38,3.99 1.46,1.33 1.91,3.81 3.78,5 0.82,2.13 2.76,3.26 3.79,5.42 0.9,1.31 2.08,1.73 2.3,3.36 1.72,2.86 4.58,5.05 5.73,8.16 1.06,0.44 1.91,1.3 2.72,1.76 2.82,-0.38 4.27,-3.99 1.82,-5.85 -1.24,-1.8 -2.2,-3.83 -3.69,-5.54 1.72,-1.56 3.9,-3.22 6.16,-3.59 2.5,2.06 3.26,6.56 6.58,7.49 2,-0.08 2.06,-2.61 4.02,-2.47 3.02,-2.12 6.04,-4.58 8.99,-6.68 1.91,-0.33 2.85,-2.52 4.9,-3.07 2.8,-1.95 5.73,-3.81 8.12,-6.18 0.29,-1.65 -1.82,-2.7 -2.35,-4.23 -1.71,-3.46 -5.74,-0.53 -7.15,1.6 -0.92,0.54 -2.09,0.56 -2.47,1.72 -3.17,2.39 -6.43,-1.76 -6.49,-4.71 1.32,-0.87 3.03,-1.27 3.82,-2.74 2.34,-0.49 3.53,-3.09 5.81,-3.7 1.12,-1.38 -0.15,-2.61 -1.05,-3.48 -0.43,-2.12 -2.94,-5.29 -4.98,-2.71 -1.66,1.61 -3.49,2.27 -5.02,3.84 -2.58,1.22 -4.61,3.15 -6.68,4.92 -1.71,0.33 -4.57,2.48 -2.23,4.01 0.91,2.25 3.08,3.8 3.85,6.05 -0.6,2.17 -3.12,2.79 -4.66,4.09 -4.31,0.33 -4.86,-6.29 -8.72,-6.92 -1.2,1.87 -3.54,3.73 -5.93,3.76 -2.46,-1.46 -5.13,-4.38 -5.16,-7.31 2.23,-0.45 3.78,-2.5 5.95,-3.07 1.47,-1.9 -0.93,-3.53 -1.46,-5.18 -1.98,-0.75 -3.64,-4.3 -0.73,-5.27 1.38,-0.5 2.58,-1.04 3.4,-2.29 2.34,-0.02 4,2.99 5.04,4.82 0.72,2.48 4.28,2.08 5.1,0.14 1.59,0.07 1.77,-1.99 3.51,-1.9 1.32,-0.6 1.65,-2.13 3.21,-2.25 1.6,-1.4 3.01,-2.87 5.02,-3.58 1.05,-1 4.43,-2.3 2.17,-3.93 -1.47,-1.52 -1.97,-5.02 -4.47,-5.06 -1.1,1.29 -2.62,1.95 -4.05,2.64 -0.7,1.51 -3.38,1.21 -3.79,3.19 -2.78,2.8 -5.48,-1.19 -6.29,-3.64 -2.07,-0.27 0.23,-3.35 1.41,-3.72 1.39,-0.59 1.41,-2.33 3.1,-2.15 1.64,-0.86 2.8,-2.4 4.62,-2.81 0.52,-3 -2.43,-5.74 -4.03,-8.06 -0.22,-0.2 -0.55,-0.34 -0.85,-0.28 z"
           inkscape:connector-curvature="0" />
        <path
           id="path2296"
           style="fill:#ffff00"
           d="m 253.89,360.79 c -1.3,0.22 -1.44,1.87 -3.02,1.92 -1.78,1.46 -3.78,2.53 -5.63,3.77 -0.73,1.2 -3.02,1.44 -2.65,3.52 0.09,3.66 4.86,1.85 6.64,0.55 2.71,-2.54 7.11,-3.75 8.62,-7.41 -0.61,-1.56 -2.3,-2.52 -3.96,-2.35 z"
           inkscape:connector-curvature="0" />
        <path
           id="path2298"
           style="fill:#ffff00"
           d="m 245.77,352.29 c -2.3,2.05 -6.26,3.1 -8,6.07 0.27,3.65 4.14,8.52 8.22,6.32 2.31,-1.79 6.63,-4.01 4.76,-7.57 -1.24,-1.75 -2.78,-4.29 -4.98,-4.82 z"
           inkscape:connector-curvature="0" />
        <path
           id="path2300"
           style="fill:#ffff00"
           d="m 244.25,344.96 c -1.22,0.58 -1.53,2.25 -3.18,2.17 -1.68,1.76 -4.38,2.85 -5.74,4.74 -2.2,0 -5.42,3.31 -2.53,4.79 4.45,1.32 8.25,-3.24 11.59,-5.32 2.17,-0.59 4.91,-3.54 1.99,-5.2 -0.61,-0.49 -1.31,-1.17 -2.13,-1.18 z"
           inkscape:connector-curvature="0" />
        <path
           id="path2302"
           style="fill:#ffff00"
           d="m 234.58,331.85 c 0.05,1.49 -2.08,0.93 -2.29,2.3 -2.25,0.39 -3.82,2.49 -5.97,3.06 -0.45,1.42 -3.07,1.39 -2.71,3.38 -0.48,0.9 -1.69,1.53 -0.79,2.75 1.61,4.11 6.02,9.25 10.85,7.55 1.03,-1.82 3.91,-1.94 5.12,-3.88 3.4,-1.53 5.52,-6.13 2.53,-9.05 -1.98,-1.81 -3.26,-4.53 -5.77,-5.49 -0.12,-0.36 -0.48,-1.2 -0.97,-0.62 z"
           inkscape:connector-curvature="0" />
        <path
           id="path2304"
           style="fill:#ffff00"
           d="m 230.85,326.04 c -1.44,1.19 -2.9,1.95 -4.53,2.83 -1.51,1.85 -4.29,2.25 -5.53,4.03 -3.55,0.56 -2.23,7.19 1.56,4.72 2.86,-1.03 4.74,-3.7 7.55,-4.64 1.4,-1.64 5.43,-2.92 3.08,-5.55 -0.4,-0.77 -1.19,-1.56 -2.13,-1.39 z"
           inkscape:connector-curvature="0" />
        <path
           id="path2306"
           style="fill:#ffff00"
           d="m 219.44,317.21 c -4.09,0.16 -4.8,5.72 -3.47,8.68 1.31,0.43 0.85,2.88 2.76,2.88 2.61,0.56 6.95,0.96 7.16,-2.65 1.72,-0.8 1.07,-3.63 -0.26,-4.39 0.11,-3.05 -3.52,-4.71 -6.19,-4.52 z"
           inkscape:connector-curvature="0" />
        <path
           id="path2308"
           style="fill:#ffff00"
           d="m 219.25,276.3 c -2.79,0.19 -6.06,-0.24 -8.26,1.54 -2.98,0.22 -5.57,1.96 -8.46,2.29 -0.9,1.62 -3.66,1.17 -4.51,2.81 -1.59,-0.07 -1.77,1.99 -3.52,1.9 -1.32,0.7 -1.75,2.1 -3.34,2.37 -4.1,3.29 -8.18,7.19 -10.89,11.56 -1.23,0.4 -0.58,2.05 -1.8,2.47 -0.5,1.85 -1.11,3.57 -2.11,5.12 -0.9,2.89 -0.21,6.31 -2,8.69 -0.31,1.82 1.62,2.74 1.23,4.65 0.18,4.13 1.19,8.37 3.08,11.92 1.46,0.39 1.36,2.83 2.84,3.64 4.37,5.19 10.98,8.89 17.95,7.64 4.06,-0.33 8.57,0.37 12,-2.01 4.13,-1.36 6.5,-7.16 4.72,-10.99 -1.16,-0.34 -0.61,-2.35 -2.11,-2.59 -0.86,-1.42 -1.87,-3.05 -3.95,-2.59 -2.3,-0.31 -5.86,-0.04 -5.44,3.18 -0.41,2.01 1.6,3.58 2.18,4.96 -3.41,1.99 -8.02,2.04 -11.84,1.42 -3.75,-0.86 -6.84,-3.87 -8.6,-6.97 -1.2,-0.28 -0.32,-2.45 -1.74,-2.89 -0.64,-4.51 -0.9,-9.64 0.12,-14.07 1.51,-1.45 2.3,-3.7 4.31,-4.94 2.82,-1.52 5.36,-3.85 8.71,-4.15 2.19,-1.62 5.06,-0.63 7.39,-1.9 1.5,-1.35 0.91,-4.01 2.67,-5.02 1.47,-3.3 5.2,-5.51 8.18,-7.41 2.1,-1.5 4.99,-0.81 6.98,-2.11 1.86,-0.76 5.01,-1.05 6.56,0.55 1.71,0.39 3.36,0.78 4.41,2.05 2.4,0.7 3.8,3.72 5.44,5.44 0.08,1.55 2.03,2.17 1.66,3.99 -0.21,2.84 2.79,5.78 1,8.36 -1.14,2.72 -1.45,6.06 -4.07,8.01 -1.29,1.22 -3.64,3.17 -5.35,2.27 -0.24,-2.03 0.03,-5.77 -3.15,-5.32 -3.18,-0.52 -6.26,3.46 -4.07,6.09 0.71,7.2 9.96,9.48 15.44,6.01 1.61,-0.46 3.23,-0.96 3.71,-2.77 1.49,-0.93 2.78,-2.1 3.17,-3.93 2.34,-2.04 1.08,-6.07 2.86,-8.52 0.34,-2.48 0.7,-5.64 -0.89,-7.57 -0.07,-3.68 -1.93,-7.24 -3.91,-10.06 -2.84,-3.73 -6.39,-7.48 -10.55,-9.76 -2.15,0.15 -2.92,-1.95 -4.89,-1.88 -2.76,-2.39 -7.38,-1.03 -10.83,-1.49 l -0.33,0.01 z"
           inkscape:connector-curvature="0" />
      </g>
    </g>
  </g>
</svg>
